HIERARCHY
ROOT Hips
{
  OFFSET 0.0502701 92.146 0
  CHANNELS 6 Xposition Yposition Zposition Zrotation Xrotation Yrotation
  JOINT Bip01_Pelvis
  {
    OFFSET 0 0 0
    CHANNELS 6 Xposition Yposition Zposition Zrotation Xrotation Yrotation
    JOINT BN_Tai_01
    {
      OFFSET -4.6544 -2.06234 0
      CHANNELS 6 Xposition Yposition Zposition Zrotation Xrotation Yrotation
      JOINT BN_Tai_R_01
      {
        OFFSET 10.2279 -0.119812 3.68897
        CHANNELS 6 Xposition Yposition Zposition Zrotation Xrotation Yrotation
        JOINT BN_Tai_R_02
        {
          OFFSET 15.0421 0 1.52588e-005
          CHANNELS 6 Xposition Yposition Zposition Zrotation Xrotation Yrotation
          End Site
          {
            OFFSET 0 0 0
          }
        }
      }
      JOINT BN_Tai_L_01
      {
        OFFSET 10.2279 -0.119797 -3.68907
        CHANNELS 6 Xposition Yposition Zposition Zrotation Xrotation Yrotation
        JOINT BN_Tai_L_02
        {
          OFFSET 15.0421 0 0
          CHANNELS 6 Xposition Yposition Zposition Zrotation Xrotation Yrotation
          End Site
          {
            OFFSET 0 0 0
          }
        }
      }
    }
    JOINT Bip01_Spine
    {
      OFFSET 2.7319 1.49192 0
      CHANNELS 6 Xposition Yposition Zposition Zrotation Xrotation Yrotation
      JOINT Bip01_R_Thigh
      {
        OFFSET -2.85206 -1.24717 -6.20578
        CHANNELS 6 Xposition Yposition Zposition Zrotation Xrotation Yrotation
        JOINT Bip01_R_Calf
        {
          OFFSET 6.73247 0 0
          CHANNELS 6 Xposition Yposition Zposition Zrotation Xrotation Yrotation
          JOINT Bip01_R_HorseLink
          {
            OFFSET 8.08523 0 0
            CHANNELS 6 Xposition Yposition Zposition Zrotation Xrotation Yrotation
            JOINT Bip01_R_Foot
            {
              OFFSET 8.97518 0 0
              CHANNELS 6 Xposition Yposition Zposition Zrotation Xrotation Yrotation
              JOINT BN_Toe_R_30
              {
                OFFSET 1.58762 -0.234982 -0.295153
                CHANNELS 6 Xposition Yposition Zposition Zrotation Xrotation Yrotation
                JOINT BN_Toe_R_31
                {
                  OFFSET 3.03849 0 0
                  CHANNELS 6 Xposition Yposition Zposition Zrotation Xrotation Yrotation
                  End Site
                  {
                    OFFSET 0 0 0
                  }
                }
              }
              JOINT BN_Toe_R_00
              {
                OFFSET 1.65463 0.933666 1.02414
                CHANNELS 6 Xposition Yposition Zposition Zrotation Xrotation Yrotation
                JOINT BN_Toe_R_01
                {
                  OFFSET 3.51775 0 0
                  CHANNELS 6 Xposition Yposition Zposition Zrotation Xrotation Yrotation
                  End Site
                  {
                    OFFSET 0 0 0
                  }
                }
              }
              JOINT BN_Toe_R_20
              {
                OFFSET 1.47309 1.0106 -1.16708
                CHANNELS 6 Xposition Yposition Zposition Zrotation Xrotation Yrotation
                JOINT BN_Toe_R_21
                {
                  OFFSET 3.94896 0 0
                  CHANNELS 6 Xposition Yposition Zposition Zrotation Xrotation Yrotation
                  End Site
                  {
                    OFFSET 0 0 0
                  }
                }
              }
              JOINT BN_Toe_R_10
              {
                OFFSET 1.07522 1.64225 0.0223596
                CHANNELS 6 Xposition Yposition Zposition Zrotation Xrotation Yrotation
                JOINT BN_Toe_R_11
                {
                  OFFSET 4.09655 0 0
                  CHANNELS 6 Xposition Yposition Zposition Zrotation Xrotation Yrotation
                  End Site
                  {
                    OFFSET 0 0 0
                  }
                }
              }
              JOINT Bip01_R_Toe0
              {
                OFFSET 2.04238 1.88275 0
                CHANNELS 6 Xposition Yposition Zposition Zrotation Xrotation Yrotation
                End Site
                {
                  OFFSET 0 0 0
                }
              }
            }
          }
        }
      }
      JOINT Bip01_L_Thigh
      {
        OFFSET -2.85154 -1.24849 6.20577
        CHANNELS 6 Xposition Yposition Zposition Zrotation Xrotation Yrotation
        JOINT Bip01_L_Calf
        {
          OFFSET 6.73247 0 0
          CHANNELS 6 Xposition Yposition Zposition Zrotation Xrotation Yrotation
          JOINT Bip01_L_HorseLink
          {
            OFFSET 8.08524 0 0
            CHANNELS 6 Xposition Yposition Zposition Zrotation Xrotation Yrotation
            JOINT Bip01_L_Foot
            {
              OFFSET 8.97521 0 0
              CHANNELS 6 Xposition Yposition Zposition Zrotation Xrotation Yrotation
              JOINT BN_Toe_L_00
              {
                OFFSET 1.65461 0.933701 -1.02419
                CHANNELS 6 Xposition Yposition Zposition Zrotation Xrotation Yrotation
                JOINT BN_Toe_L_01
                {
                  OFFSET 3.51778 0 0
                  CHANNELS 6 Xposition Yposition Zposition Zrotation Xrotation Yrotation
                  End Site
                  {
                    OFFSET 0 0 0
                  }
                }
              }
              JOINT BN_Toe_L_10
              {
                OFFSET 1.07523 1.6422 -0.0221281
                CHANNELS 6 Xposition Yposition Zposition Zrotation Xrotation Yrotation
                JOINT BN_Toe_L_11
                {
                  OFFSET 4.09657 0 0
                  CHANNELS 6 Xposition Yposition Zposition Zrotation Xrotation Yrotation
                  End Site
                  {
                    OFFSET 0 0 0
                  }
                }
              }
              JOINT BN_Toe_L_30
              {
                OFFSET 1.58761 -0.234954 0.295135
                CHANNELS 6 Xposition Yposition Zposition Zrotation Xrotation Yrotation
                JOINT BN_Toe_L_31
                {
                  OFFSET 3.03847 0 0
                  CHANNELS 6 Xposition Yposition Zposition Zrotation Xrotation Yrotation
                  End Site
                  {
                    OFFSET 0 0 0
                  }
                }
              }
              JOINT BN_Toe_L_20
              {
                OFFSET 1.4731 1.01055 1.1673
                CHANNELS 6 Xposition Yposition Zposition Zrotation Xrotation Yrotation
                JOINT BN_Toe_L_21
                {
                  OFFSET 3.94897 0 0
                  CHANNELS 6 Xposition Yposition Zposition Zrotation Xrotation Yrotation
                  End Site
                  {
                    OFFSET 0 0 0
                  }
                }
              }
              JOINT Bip01_L_Toe0
              {
                OFFSET 2.04238 1.88276 0
                CHANNELS 6 Xposition Yposition Zposition Zrotation Xrotation Yrotation
                End Site
                {
                  OFFSET 0 0 0
                }
              }
            }
          }
        }
      }
      JOINT Bip01_Spine1
      {
        OFFSET 8.6167 -0.00679016 0
        CHANNELS 6 Xposition Yposition Zposition Zrotation Xrotation Yrotation
        JOINT BN_Wing_R_01
        {
          OFFSET 0.267445 -6.12421 -7.49305
          CHANNELS 6 Xposition Yposition Zposition Zrotation Xrotation Yrotation
          JOINT BN_Wing_R_02
          {
            OFFSET 14.7158 0 0
            CHANNELS 6 Xposition Yposition Zposition Zrotation Xrotation Yrotation
            JOINT BN_Wing_R_03
            {
              OFFSET 19.0858 0 0
              CHANNELS 6 Xposition Yposition Zposition Zrotation Xrotation Yrotation
              JOINT BN_Wing_R_05
              {
                OFFSET 2.68908 -0.270637 0.785261
                CHANNELS 6 Xposition Yposition Zposition Zrotation Xrotation Yrotation
                JOINT BN_Wing_R_06
                {
                  OFFSET 21.1083 0 0
                  CHANNELS 6 Xposition Yposition Zposition Zrotation Xrotation Yrotation
                  End Site
                  {
                    OFFSET 0 0 0
                  }
                }
              }
              JOINT BN_Wing_R_04
              {
                OFFSET 27.642 0 0
                CHANNELS 6 Xposition Yposition Zposition Zrotation Xrotation Yrotation
                End Site
                {
                  OFFSET 0 0 0
                }
              }
            }
          }
        }
        JOINT BN_Wing_L_01
        {
          OFFSET 0.267452 -6.12421 7.49305
          CHANNELS 6 Xposition Yposition Zposition Zrotation Xrotation Yrotation
          JOINT BN_Wing_L_02
          {
            OFFSET 14.7158 0 0
            CHANNELS 6 Xposition Yposition Zposition Zrotation Xrotation Yrotation
            JOINT BN_Wing_L_03
            {
              OFFSET 19.0858 0 0
              CHANNELS 6 Xposition Yposition Zposition Zrotation Xrotation Yrotation
              JOINT BN_Wing_L_05
              {
                OFFSET 2.68908 -0.270635 -0.785254
                CHANNELS 6 Xposition Yposition Zposition Zrotation Xrotation Yrotation
                JOINT BN_Wing_L_06
                {
                  OFFSET 21.1083 0 0
                  CHANNELS 6 Xposition Yposition Zposition Zrotation Xrotation Yrotation
                  End Site
                  {
                    OFFSET 0 0 0
                  }
                }
              }
              JOINT BN_Wing_L_04
              {
                OFFSET 27.642 0 1.14441e-005
                CHANNELS 6 Xposition Yposition Zposition Zrotation Xrotation Yrotation
                End Site
                {
                  OFFSET 0 0 0
                }
              }
            }
          }
        }
        JOINT Bip01_Neck
        {
          OFFSET 7.59958 -1.43237 0
          CHANNELS 6 Xposition Yposition Zposition Zrotation Xrotation Yrotation
          JOINT Bip01_Neck1
          {
            OFFSET 3.64749 -0.00262451 0
            CHANNELS 6 Xposition Yposition Zposition Zrotation Xrotation Yrotation
            JOINT Bip01_Neck2
            {
              OFFSET 3.32331 -0.00284576 0
              CHANNELS 6 Xposition Yposition Zposition Zrotation Xrotation Yrotation
              JOINT Bip01_Head
              {
                OFFSET 4.63256 -0.573471 0
                CHANNELS 6 Xposition Yposition Zposition Zrotation Xrotation Yrotation
                JOINT BN_Jaw
                {
                  OFFSET 1.05386 2.23561 0
                  CHANNELS 6 Xposition Yposition Zposition Zrotation Xrotation Yrotation
                  End Site
                  {
                    OFFSET 0 0 0
                  }
                }
              }
            }
          }
        }
      }
    }
  }
}
MOTION
Frames:	4
Frame Time:	0.0333333
-0.133723 94.2184 0 135.356 -90 178.179 0 0 0 -89.9946 9.5772 -89.9948 -4.65442 -2.06234 1.73472e-018 -8.12547 1.9485 179.532 10.228 -0.119785 3.68891 28.6031 80.8654 -27.8415 15.0421 -2.38419e-007 0 5.14665 -4.542 9.38255 10.2278 -0.11977 -3.68914 -138.507 78.4916 143.9 15.0421 -8.88179e-016 -3.8147e-006 -5.15014 4.54172 9.38269 3.04981 0.628586 -9.31323e-010 -8.20786 -1.26504e-010 2.14033e-010 -2.93065 -1.05706 -6.20591 -165.786 -21.4206 176.29 6.73249 0 0 -117.413 -4.4689e-006 9.05851e-006 8.08525 0 0 116.106 8.04972e-006 -4.78003e-006 8.97522 1.14441e-005 0 -74.8203 -0.0604675 -24.4816 1.58763 -0.234978 -0.295148 146.154 0.76114 166.358 3.03847 -7.6294e-006 3.8147e-006 -45.9883 -1.27762e-006 2.63122e-008 1.65462 0.933662 1.02414 71.7281 27.4578 -45.3024 3.51775 -7.10543e-015 0 31.7752 2.33262e-005 2.65225e-006 1.4731 1.01058 -1.16707 66.6448 -8.00172 30.8802 3.94897 0 -7.62939e-006 32.8748 -3.41124e-007 1.61674e-006 1.07522 1.64223 0.0223646 54.8099 -6.18649 -1.0778 4.09657 7.6294e-006 2.38419e-007 56.2688 1.42787e-005 -3.68927e-006 2.04238 1.88274 4.76837e-007 87.4729 -2.52846 27.7808 -2.9288 -1.05771 6.20577 -119.524 11.0838 171.284 6.73248 -7.6294e-006 1.90735e-006 -83.9793 -1.13109e-005 2.82634e-006 8.08523 -5.72205e-006 9.53674e-007 113.362 7.25783e-006 1.4811e-005 8.9752 0 9.53674e-007 -48.9876 4.93519 9.52306 1.65462 0.933685 -1.02419 66.714 -31.6813 42.8255 3.51776 3.81469e-006 7.62939e-006 47.7875 1.8595e-005 -9.14412e-006 1.07522 1.64219 -0.0221257 66.4582 -3.31651 6.53568 4.09656 -3.81469e-006 1.77636e-015 50.5759 1.67006e-005 -3.18143e-006 1.58763 -0.234978 0.295135 135.264 5.7028 -177.038 3.03848 -1.14441e-005 1.77636e-015 -38.7373 8.07918e-006 7.40587e-006 1.4731 1.01056 1.1673 66.8811 5.45928 -10.7952 3.94897 -3.81469e-006 3.8147e-006 48.5268 2.38079e-006 9.14236e-007 2.04238 1.88274 0 120.306 0.489715 -30.702 8.61717 -0.0068512 -9.31323e-010 -4.08905 1.11587e-010 -4.19263e-010 0.267441 -6.12426 -7.49305 -69.5951 -2.51833 27.042 14.7158 -1.42109e-014 -1.06581e-014 51.381 5.15707 -4.82037 19.0859 -9.53674e-007 -1.90735e-006 -36.6053 -2.24683 23.928 2.68911 -0.27063 0.785294 -43.8612 2.4697 4.79228 21.1082 -7.62939e-006 0 -1.32056 -2.34539 36.8282 27.642 -7.62939e-006 7.62939e-006 -2.63525 -0.0479283 40.8152 0.266846 -6.12425 7.49285 -69.5951 2.51833 -27.042 14.7158 -7.62939e-006 1.90735e-006 51.381 -5.15707 4.82036 19.0859 -2.86102e-006 3.8147e-006 -36.6053 2.24683 -23.928 2.68911 -0.270645 -0.785309 -43.8612 -2.46969 -4.79228 21.1083 -7.62939e-006 -3.8147e-006 -1.3205 2.34545 -36.8282 27.642 -7.62939e-006 1.42109e-014 -2.63552 0.0476253 -40.8152 7.59941 -1.43241 9.31323e-010 3.77414 -2.08441e-010 -2.08442e-010 3.6492 -0.00226212 -9.31323e-010 31.3246 1.08364e-010 1.78054e-010 3.32334 -0.00289154 9.31323e-010 -4.46352 2.08387e-011 -3.32736e-010 4.63258 -0.573464 3.46945e-018 -7.21592 4.15231e-010 2.61834e-011 1.05391 2.23562 -1.73472e-018 -79.0055 -0.0283661 -179.966 
0.147206 92.8784 0.214225 -40.6419 -89.5346 1.53972 0 0 0 -89.9946 9.57721 -89.9948 -4.65442 -2.06234 1.66533e-015 -8.37017 1.94994 179.556 10.228 -0.119785 3.68891 28.795 81.0293 -29.7532 15.0421 -2.38419e-007 -7.10542e-015 5.10638 -4.5947 8.18959 10.2278 -0.11977 -3.68914 -138.69 78.537 142.353 15.0421 1.77636e-015 -3.8147e-006 -5.11685 4.59038 8.18984 3.04981 0.628586 -9.31323e-010 -8.34231 -0.00812102 0.0137773 -2.92485 -1.06238 -6.2074 -159.571 -20.1384 177.503 6.73249 -1.42109e-014 7.10543e-015 -112.063 -4.10714e-006 9.23213e-006 8.08525 2.13163e-014 -1.42109e-014 108.425 -8.8802e-007 -4.94989e-007 8.97522 1.14441e-005 0 -72.7335 1.47366 -22.7413 1.58763 -0.234978 -0.295148 145.848 0.828952 166.354 3.03847 -7.6294e-006 3.8147e-006 -44.9717 -1.22005e-006 1.09265e-007 1.65462 0.933662 1.02414 72.2458 27.1159 -45.1107 3.51775 7.10543e-015 1.42109e-014 31.67 -0.000492961 -0.000834508 1.4731 1.01058 -1.16707 66.9398 -7.39157 30.859 3.94897 4.40537e-013 -7.62939e-006 32.7581 -0.0411245 0.0949053 1.07522 1.64223 0.0223646 55.8211 -6.20355 -0.955013 4.09657 7.6294e-006 2.38419e-007 56.1039 0.00263479 0.00175702 2.04238 1.88274 4.77192e-007 87.4653 -2.58108 27.6141 -2.92912 -1.06554 6.20426 -122.106 11.6664 172.231 6.73248 -7.6294e-006 1.90735e-006 -88.5101 -1.0935e-005 1.98292e-006 8.08523 -5.72205e-006 9.53674e-007 111.099 6.99939e-006 1.55913e-005 8.9752 0 9.53674e-007 -47.0914 4.39866 9.92841 1.65462 0.933685 -1.02419 66.5942 -31.8435 42.9128 3.51776 3.81469e-006 7.62939e-006 47.4155 0.016817 0.101647 1.07522 1.64219 -0.0221257 66.7719 -3.22605 6.53864 4.09656 -3.81469e-006 -1.77636e-015 51.2689 8.44115e-006 -9.65272e-006 1.58763 -0.234978 0.295135 135.566 5.6924 -177.088 3.03848 -1.14441e-005 4.61853e-014 -38.7428 7.94741e-006 7.24535e-006 1.4731 1.01056 1.1673 68.2552 5.4727 -10.8199 3.94897 -3.81469e-006 3.8147e-006 49.5204 0.00450637 0.00384467 2.04238 1.88274 1.19132e-009 120.544 0.652223 -30.5268 8.61717 -0.0068512 -9.31323e-010 -3.71566 -0.237436 -0.0894123 0.267441 -6.12426 -7.49305 -68.0225 -3.70287 26.2498 14.7158 4.26326e-014 -7.10543e-015 49.5263 5.04883 -4.80953 19.0859 -9.53674e-007 -1.90735e-006 -36.8312 -2.33325 18.608 2.68911 -0.27063 0.785294 -45.2278 2.22331 4.97502 21.1082 -7.62939e-006 -4.26326e-014 -1.32444 -2.40106 34.4377 27.642 -7.62939e-006 7.62939e-006 -2.63689 -0.0534158 36.3219 0.266836 -6.12425 7.49284 -67.8534 3.84208 -26.2886 14.7158 -7.62939e-006 1.90735e-006 49.5418 -5.04497 4.80864 19.0859 -2.86102e-006 3.8147e-006 -36.8312 2.33324 -18.608 2.68911 -0.270645 -0.785309 -45.2241 -2.22212 -4.97814 21.1083 -7.62939e-006 -3.8147e-006 -1.3288 2.39878 -34.434 27.642 -7.62939e-006 3.55271e-014 -2.63355 0.0522553 -36.3219 7.59941 -1.43241 9.31322e-010 1.23159 0.0832739 -0.173941 3.6492 -0.00226212 -9.31323e-010 29.9291 -0.00229168 -0.131073 3.32334 -0.00289154 9.31323e-010 -3.62562 -0.111455 -0.162901 4.63258 -0.573464 -1.18794e-014 -3.6049 0.295177 0.0694033 1.05391 2.23562 -2.6007e-014 -79.6273 -0.0182343 -179.968 
0.621296 91.2669 0.44527 -40.7323 -88.9988 0.69806 0 0 0 -89.9946 9.57721 -89.9947 -4.65442 -2.06234 1.9984e-015 -9.00791 1.95378 179.614 10.228 -0.119785 3.68891 28.5649 81.2041 -31.5936 15.0421 -2.38419e-007 0 5.00001 -4.71674 5.07733 10.2278 -0.11977 -3.68914 -139.58 78.4754 141.145 15.0421 1.77636e-015 -3.8147e-006 -5.03456 4.70471 5.07826 3.04981 0.628586 -9.31324e-010 -8.46383 -0.021051 0.047537 -2.91917 -1.06758 -6.20887 -153.311 -18.675 178.554 6.73249 -4.26326e-014 1.42109e-014 -106.443 -1.22717e-005 6.90763e-006 8.08525 0 -3.55271e-015 100.153 -8.07562e-007 -6.17607e-007 8.97522 1.14441e-005 0 -70.5517 2.86119 -20.7689 1.58763 -0.234978 -0.295148 145.368 0.831141 166.289 3.03847 -7.6294e-006 3.8147e-006 -43.9748 -7.64547e-006 6.9422e-006 1.65462 0.933662 1.02414 72.7532 26.7822 -44.9199 3.51775 -1.42109e-014 5.68434e-014 31.5669 -0.000992031 -0.00165024 1.4731 1.01058 -1.16707 67.5091 -6.95869 30.7745 3.94897 4.68958e-013 -7.62939e-006 32.6437 -0.0816322 0.187888 1.07522 1.64223 0.0223646 57.0434 -6.21724 -0.833563 4.09657 7.6294e-006 2.38419e-007 55.9422 0.00520331 0.0035041 2.04238 1.88274 4.77387e-007 87.4576 -2.63266 27.4506 -2.92945 -1.07321 6.20278 -124.095 12.1792 173.329 6.73248 -7.6294e-006 1.90735e-006 -91.2544 -6.73691e-007 1.68501e-006 8.08523 -5.72205e-006 9.53675e-007 107.466 6.97954e-006 1.59939e-005 8.9752 0 9.53674e-007 -47.1527 3.5656 10.3407 1.65462 0.933685 -1.02419 66.2162 -32.3131 43.1859 3.51776 3.81469e-006 7.62939e-006 46.5133 0.000332051 0.319597 1.07522 1.64219 -0.0221257 66.9672 -3.1545 6.49371 4.09656 -3.81469e-006 0 51.9484 7.67236e-006 -9.646e-006 1.58763 -0.234978 0.295135 136.307 5.69334 -177.161 3.03848 -1.14441e-005 1.06581e-013 -38.7481 7.76091e-006 7.03504e-006 1.4731 1.01056 1.1673 69.8374 5.5046 -10.8773 3.94897 -3.81469e-006 3.8147e-006 50.4948 0.0089981 0.00741717 2.04238 1.88274 2.61563e-009 120.777 0.812272 -30.3555 8.61717 -0.0068512 -9.31323e-010 -3.44618 -0.476189 -0.220743 0.267441 -6.12426 -7.49305 -67.1167 -4.47663 25.2417 14.7158 0 1.06581e-014 48.2251 4.96775 -4.78234 19.0859 -9.53674e-007 -1.90735e-006 -37.1343 -2.416 12.6134 2.6891 -0.27063 0.785294 -46.6969 1.98105 5.44315 21.1082 -7.62939e-006 -4.9738e-014 -1.34104 -2.51772 28.3579 27.642 -7.62939e-006 7.62939e-006 -2.63863 -0.0592802 28.7674 0.266836 -6.12425 7.49284 -66.8662 4.68249 -25.3042 14.7158 -7.62939e-006 1.90735e-006 48.27 -4.95914 4.77357 19.0859 -2.86102e-006 3.8147e-006 -37.1342 2.41599 -12.6134 2.68911 -0.270645 -0.785309 -46.6969 -1.98104 -5.44314 21.1083 -7.62939e-006 -3.8147e-006 -1.34101 2.51775 -28.3579 27.642 -7.62939e-006 -7.10543e-015 -2.6276 0.0600511 -28.7673 7.59941 -1.43241 9.31322e-010 -1.54868 0.207497 -0.343446 3.6492 -0.00226212 -9.31322e-010 28.5119 -0.0205225 -0.2654 3.32334 -0.00289154 9.31323e-010 -2.74626 -0.222284 -0.358651 4.63258 -0.573464 -1.17018e-013 0.429415 0.64399 0.133979 1.05391 2.23562 -2.35589e-013 -81.2636 -0.000411989 -179.971 
1.21582 89.4661 0.69083 -40.7396 -88.4176 -0.135705 0 0 0 -89.9947 9.57721 -89.9947 -4.65442 -2.06234 2.88658e-015 -9.95104 1.95949 179.695 10.228 -0.119785 3.68891 28.1014 81.3746 -33.4475 15.0421 -2.38419e-007 -1.42108e-014 4.83402 -4.86843 0.46137 10.2278 -0.11977 -3.68914 -140.931 78.3428 140.143 15.0421 0 -3.8147e-006 -4.90402 4.84367 0.463292 3.04981 0.628586 -9.31323e-010 -8.57953 -0.035224 0.095554 -2.91246 -1.07236 -6.21134 -146.938 -17.0442 179.449 6.73249 0 3.55271e-015 -100.562 -1.6511e-006 9.96501e-006 8.08525 -7.10543e-015 0 91.3645 9.31135e-006 -9.72283e-007 8.97522 1.14441e-005 0 -68.3084 4.03765 -18.5664 1.58763 -0.234978 -0.295148 144.669 1.02286 166.358 3.03847 -7.6294e-006 3.8147e-006 -42.9681 -7.50056e-006 7.18535e-006 1.65462 0.933662 1.02414 73.2654 26.4467 -44.7244 3.51775 1.42109e-014 2.84217e-014 31.4627 -0.00148828 -0.00246779 1.4731 1.01058 -1.16707 68.0842 -6.52237 30.6847 3.94897 4.54747e-013 -7.62939e-006 32.5282 -0.122733 0.281706 1.07522 1.64223 0.0223646 58.278 -6.22844 -0.710641 4.09657 7.6294e-006 2.38419e-007 55.7788 0.00778491 0.0052816 2.04238 1.88274 4.77467e-007 87.4497 -2.68472 27.2855 -2.93253 -1.08058 6.20006 -125.559 12.5846 174.546 6.73248 -7.6294e-006 1.90735e-006 -92.5521 -1.05681e-005 1.21987e-006 8.08523 -5.72205e-006 9.53675e-007 102.643 1.43481e-005 1.46375e-005 8.9752 0 9.53674e-007 -48.8001 2.49451 10.7298 1.65462 0.933685 -1.02419 65.7075 -32.9657 43.5418 3.51776 3.81469e-006 7.62939e-006 44.953 -0.00482368 0.692768 1.07522 1.64219 -0.0221257 67.1645 -3.08239 6.44811 4.09656 -3.81469e-006 -3.55271e-015 52.6347 1.46743e-005 -3.41223e-006 1.58763 -0.234978 0.295135 137.571 5.7087 -177.287 3.03848 -1.14441e-005 1.77636e-013 -38.7535 7.5707e-006 6.78045e-006 1.4731 1.01056 1.1673 71.6451 5.55756 -10.9899 3.94897 -3.81469e-006 3.8147e-006 51.4788 0.0136025 0.010826 2.04238 1.88274 2.9946e-009 121.438 1.27454 -29.8701 8.61717 -0.0068512 -9.31323e-010 -3.23076 -0.720569 -0.377188 0.267441 -6.12426 -7.49305 -66.7094 -4.94138 24.3585 14.7158 1.42109e-014 7.10543e-015 47.3263 4.90575 -4.734 19.0859 -9.53674e-007 -1.90735e-006 -37.5294 -2.49467 6.0426 2.6891 -0.27063 0.785294 -48.2159 1.7472 6.11372 21.1082 -7.62939e-006 -4.61853e-014 -1.37339 -2.62368 19.6772 27.642 -7.62939e-006 7.62939e-006 -2.63504 -0.0638199 19.099 0.266836 -6.12425 7.49285 -66.4504 5.15983 -24.4236 14.7158 -7.62939e-006 1.90735e-006 47.4085 -4.88591 4.72261 19.0859 -2.86102e-006 3.8147e-006 -37.5294 2.49465 -6.04258 2.68911 -0.270645 -0.785309 -48.2159 -1.74718 -6.11372 21.1083 -7.62939e-006 -3.8147e-006 -1.37278 2.62715 -19.6772 27.642 -7.62939e-006 4.9738e-014 -2.61261 0.0706798 -19.0987 7.59941 -1.43241 9.31322e-010 -4.52152 0.355748 -0.50043 3.6492 -0.00226212 -9.3132e-010 27.0501 -0.0464629 -0.402544 3.32334 -0.00289154 9.31324e-010 -1.82746 -0.340594 -0.576756 4.63258 -0.573464 -5.19584e-013 4.81231 1.13615 0.153681 1.05391 2.23562 -9.00946e-013 -83.9573 0.00357056 -179.972 
